<svg id="Layer_1" data-name="Layer 1" xmlns="http://www.w3.org/2000/svg" viewBox="0 0 434 111"><defs><style>.cls-1{fill:none;}.cls-2{fill:#fff;}</style></defs><title>logo-03</title><rect class="cls-1" x="0.9" width="433.1" height="91.7"/><path class="cls-2" d="M39.2,77.2,30.5,93.1H15L56.7,15.7H68.1L84.4,93.1H68.7L65.4,77.2Zm19-39.4H58L45.3,65.2H63.2Z" transform="translate(-15 -8.3)"/><path class="cls-2" d="M131.9,81.3,130,93.1H83.4l31-37.3H93.2L95.1,44h44.3L108.6,81.3h23.3Z" transform="translate(-15 -8.3)"/><path class="cls-2" d="M158.1,44l-4.2,26.6a30.17,30.17,0,0,0-.5,4.7,9.19,9.19,0,0,0,1.5,5.5c1,1.4,2.6,2.1,5,2.1a8.32,8.32,0,0,0,4.3-1.1,8.06,8.06,0,0,0,2.9-2.9,22.17,22.17,0,0,0,1.8-3.8,29.71,29.71,0,0,0,1-4.5L174.1,44h14l-4.6,28.9c-2.3,14.5-10.8,21.8-25.4,21.8-12.7,0-19.1-5.5-19.1-16.4a35,35,0,0,1,.5-5.4L144.1,44h14Z" transform="translate(-15 -8.3)"/><path class="cls-2" d="M211.1,49.1h.2c3.6-4.5,8-6.7,13.2-6.7a14.49,14.49,0,0,1,5.6,1.2l-3.7,13a8.66,8.66,0,0,0-5.5-1.8,13.18,13.18,0,0,0-5.9,1.3,10.63,10.63,0,0,0-3.9,3.7,23.43,23.43,0,0,0-2.3,5.1,46.45,46.45,0,0,0-1.3,6.1L204,93.1H190L197.8,44h14Z" transform="translate(-15 -8.3)"/><path class="cls-2" d="M241.6,70.8a22.56,22.56,0,0,0-.3,3.5,12,12,0,0,0,1.9,7,7,7,0,0,0,6,2.8,10,10,0,0,0,5.9-1.8,16.73,16.73,0,0,0,4.6-4.9l12.6,2.1A28.83,28.83,0,0,1,262,90.8a27,27,0,0,1-14.4,4c-6.6,0-11.7-1.9-15.4-5.6s-5.5-8.7-5.5-14.9a31.16,31.16,0,0,1,.4-5.2q2-11.7,9.3-19.2c4.9-5,11.2-7.5,18.8-7.5,6.6,0,11.5,1.9,14.8,5.6s4.9,8.6,4.9,14.7a47.2,47.2,0,0,1-.5,6.4l-.3,1.7Zm20.5-8.7a11.83,11.83,0,0,0-2-7,6.51,6.51,0,0,0-5.7-2.9,9.44,9.44,0,0,0-6.9,2.9,16.46,16.46,0,0,0-4.1,7Z" transform="translate(-15 -8.3)"/><path class="cls-2" d="M336.5,37.7a17.56,17.56,0,0,0-6.5-5.9,18.74,18.74,0,0,0-8.8-2.1,22.42,22.42,0,0,0-9.6,2.1,25.17,25.17,0,0,0-7.9,5.9,34.58,34.58,0,0,0-5.7,8.4,33.44,33.44,0,0,0-3,9.6,35.53,35.53,0,0,0-.3,4.6,22.76,22.76,0,0,0,4.9,14.8q4.95,6,13.5,6a22.61,22.61,0,0,0,9.5-2.2,29.77,29.77,0,0,0,8.5-5.8l-2.8,17.5a75.13,75.13,0,0,1-9.3,3.3,32.26,32.26,0,0,1-8.5,1.2,31.3,31.3,0,0,1-12.7-2.5,29.35,29.35,0,0,1-16.3-17.5,35.55,35.55,0,0,1-2.2-12.6,46.23,46.23,0,0,1,.5-6.5,53,53,0,0,1,5.1-15.3,47.85,47.85,0,0,1,9.8-13A47,47,0,0,1,308,18.8a39.1,39.1,0,0,1,15.5-3.2A30.91,30.91,0,0,1,339.6,20Z" transform="translate(-15 -8.3)"/><path class="cls-2" d="M351.7,93.1h-14L345.5,44h14Zm10.5-76a6.78,6.78,0,0,1,1.9,5v.7a1.27,1.27,0,0,0-.1.6,9.09,9.09,0,0,1-3.3,5.9,9.55,9.55,0,0,1-6.3,2.4,6.93,6.93,0,0,1-5.1-2,6.86,6.86,0,0,1-2-5,1.27,1.27,0,0,1,.1-.6v-.7a9.45,9.45,0,0,1,3.4-5.8,9.67,9.67,0,0,1,6.3-2.5A6.56,6.56,0,0,1,362.2,17.1Z" transform="translate(-15 -8.3)"/><path class="cls-2" d="M378,93.1H364l5.9-37.3h-4.8L367,44h4.8l2.6-16.6h14L385.8,44h8.6l-1.9,11.8h-8.6Z" transform="translate(-15 -8.3)"/><path class="cls-2" d="M390.7,44h15.9l7.3,27.9,17-27.9h15.6l-47.6,75.3H383.5L405,85.6Z" transform="translate(-15 -8.3)"/></svg>